<?xml version="1.0" encoding="UTF-8"?>
<svg xmlns="http://www.w3.org/2000/svg" width="60.0" height="60.0" viewBox="1791.0 26.0 60.0 60.0" preserveAspectRatio="none">
  <g>
    <defs>
      <path id="s-Path_8-ed5b6" d="M1821.0 26.0 C1804.4400000572205 26.0 1791.0 39.44000005722046 1791.0 56.0 C1791.0 72.55999994277954 1804.4400000572205 86.0 1821.0 86.0 C1837.5599999427795 86.0 1851.0 72.55999994277954 1851.0 56.0 C1851.0 39.44000005722046 1837.560001373291 26.0 1821.0 26.0 Z M1821.0 35.0 C1825.9799998998642 35.0 1830.0 39.0200001001358 1830.0 44.0 C1830.0 48.9799998998642 1825.9799998998642 53.0 1821.0 53.0 C1816.0200001001358 53.0 1812.0 48.9799998998642 1812.0 44.0 C1812.0 39.0200001001358 1816.0200001001358 35.0 1821.0 35.0 Z M1821.0 77.59999942779541 C1813.5 77.59999942779541 1806.869999885559 73.7599995136261 1803.0 67.93999934196472 C1803.0899999979883 61.96999931335449 1815.0 58.69999957084656 1821.0 58.69999957084656 C1826.9700000286102 58.69999957084656 1838.909999370575 61.96999967098236 1839.0 67.93999934196472 C1835.130000114441 73.7599995136261 1828.5 77.59999942779541 1821.0 77.59999942779541 Z "></path>
    </defs>
    <g style="mix-blend-mode:normal">
      <use xmlns:xlink="http://www.w3.org/1999/xlink" xlink:href="#s-Path_8-ed5b6" fill="#FAFAFA" fill-opacity="1.0"></use>
    </g>
  </g>
</svg>
