<?xml version="1.0" encoding="UTF-8"?>
<svg xmlns="http://www.w3.org/2000/svg" width="18.0" height="20.0" viewBox="0.0 0.0 18.0 20.0" preserveAspectRatio="none">
  <g>
    <defs>
      <path id="s-Path_7-ed5b6" d="M14.0 11.0 L9.0 11.0 L9.0 16.0 L14.0 16.0 L14.0 11.0 Z M13.0 0.0 L13.0 2.0 L5.0 2.0 L5.0 0.0 L3.0 0.0 L3.0 2.0 L2.0 2.0 C0.8899999856948853 2.0 0.009999990463256836 2.899999976158142 0.009999990463256836 4.0 L0.0 18.0 C0.0 19.100000023841858 0.8899999856948853 20.0 2.0 20.0 L16.0 20.0 C17.100000023841858 20.0 18.0 19.100000023841858 18.0 18.0 L18.0 4.0 C18.0 2.899999976158142 17.100000023841858 2.0 16.0 2.0 L15.0 2.0 L15.0 0.0 L13.0 0.0 Z M16.0 18.0 L2.0 18.0 L2.0 7.0 L16.0 7.0 L16.0 18.0 Z "></path>
    </defs>
    <g style="mix-blend-mode:normal">
      <use xmlns:xlink="http://www.w3.org/1999/xlink" xlink:href="#s-Path_7-ed5b6" fill="#7D7D7D" fill-opacity="1.0"></use>
    </g>
  </g>
</svg>
