<?xml version="1.0" encoding="UTF-8"?>
<svg xmlns="http://www.w3.org/2000/svg" width="20.0" height="20.0" viewBox="0.0 0.0 20.0 20.0" preserveAspectRatio="none">
  <g>
    <defs>
      <path id="s-Path_106-ed5b6" d="M7.877777947319878 13.988889058430992 L9.444444444444445 15.555555555555557 L15.000000000000004 10.0 L9.444444444444445 4.444444444444445 L7.877777814865112 6.011111074023777 L10.744444529215494 8.88888888888889 L0.0 8.88888888888889 L0.0 11.11111111111111 L10.744444529215494 11.11111111111111 L7.877777947319878 13.988888793521458 Z M17.77777777777778 0.0 L2.2222222222222214 0.0 C0.9888888729943166 0.0 0.0 0.999999973509047 0.0 2.2222222222222214 L0.0 6.666666666666666 L2.2222222222222214 6.666666666666666 L2.2222222222222214 2.2222222222222214 L17.77777777777778 2.2222222222222214 L17.77777777777778 17.77777777777778 L2.2222222222222214 17.77777777777778 L2.2222222222222214 13.333333333333336 L0.0 13.333333333333336 L0.0 17.77777777777778 C0.0 19.000000026490955 0.9888888729943166 20.000000000000004 2.2222222222222214 20.000000000000004 L17.77777777777778 20.000000000000004 C19.000000026490955 20.000000000000004 20.000000000000004 19.000000026490955 20.000000000000004 17.77777777777778 L20.000000000000004 2.2222222222222214 C20.000000000000004 0.999999973509047 19.000000026490955 0.0 17.77777777777778 0.0 Z "></path>
    </defs>
    <g style="mix-blend-mode:normal">
      <use xmlns:xlink="http://www.w3.org/1999/xlink" xlink:href="#s-Path_106-ed5b6" fill="#7D7D7D" fill-opacity="1.0"></use>
    </g>
  </g>
</svg>
