<?xml version="1.0" encoding="UTF-8"?>
<svg xmlns="http://www.w3.org/2000/svg" width="20.00005185604073" height="19.99999977343719" viewBox="-1.5940956177296073E-7 1.651053538331837E-7 20.00005185604073 19.99999977343719" preserveAspectRatio="none">
  <g>
    <defs>
      <path id="s-Path_2-ed5b6" d="M2.4993750533441883E-5 7.037458757245983 C-0.006108374592146193 8.519763278618676 1.1173852000251088 9.744970495117077 2.4888446259122876 9.751599579035997 C3.8687600927691532 9.75826953605998 5.006196178752685 8.528902759908238 5.0000249937506105 7.037458757245989 C5.006158362093291 5.555154235873293 3.882664787476034 4.329947019374891 2.511205361588855 4.3233179354559725 C1.1312898947319894 4.316647978431986 -0.006146191251541477 5.546014754583729 2.4993750533441883E-5 7.03745875724598 "></path>
    </defs>
    <g style="mix-blend-mode:normal">
      <use xmlns:xlink="http://www.w3.org/1999/xlink" xlink:href="#s-Path_2-ed5b6" fill="#7D7D7D" fill-opacity="1.0"></use>
    </g>
  </g>
  <g>
    <defs>
      <path id="s-Path_3-ed5b6" d="M4.000024993750535 2.7141678354925625 C3.993891625407855 4.1964723568652555 5.11738520002511 5.421679573363656 6.48884462591229 5.4283086572825745 C7.868760092769155 5.43497861430656 9.006196178752685 4.205611838154818 9.00002499375061 2.714167835492567 C9.006158362093291 1.231863314119869 7.882664787476037 0.006656097621466461 6.511205361588858 2.7013702547762364E-5 C5.131289894731992 -0.006642943321438555 3.99385380874846 1.2227238328303094 4.000024993750535 2.714167835492559 "></path>
    </defs>
    <g style="mix-blend-mode:normal">
      <use xmlns:xlink="http://www.w3.org/1999/xlink" xlink:href="#s-Path_3-ed5b6" fill="#7D7D7D" fill-opacity="1.0"></use>
    </g>
  </g>
  <g>
    <defs>
      <path id="s-Path_4-ed5b6" d="M10.000024993749966 2.7141678354925625 C9.993891625407286 4.1964723568652555 11.11738520002454 5.421679573363656 12.488844625911716 5.4283086572825745 C13.86876009276858 5.43497861430656 15.006196178752111 4.205611838154818 15.000024993750037 2.714167835492567 C15.006158362092718 1.231863314119869 13.882664787475461 0.006656097621466461 12.511205361588283 2.7013702547762364E-5 C11.13128989473142 -0.006642943321438555 9.993853808747891 1.2227238328303094 10.000024993749966 2.714167835492559 "></path>
    </defs>
    <g style="mix-blend-mode:normal">
      <use xmlns:xlink="http://www.w3.org/1999/xlink" xlink:href="#s-Path_4-ed5b6" fill="#7D7D7D" fill-opacity="1.0"></use>
    </g>
  </g>
  <g>
    <defs>
      <path id="s-Path_5-ed5b6" d="M15.000024993750309 7.037458757245983 C14.993891625407628 8.519763278618676 16.117385200024884 9.744970495117077 17.488844625912066 9.751599579035997 C18.868760092768927 9.75826953605998 20.006196178752457 8.528902759908238 20.000024993750383 7.037458757245989 C20.006158362093064 5.555154235873293 18.882664787475807 4.329947019374891 17.51120536158863 4.3233179354559725 C16.131289894731765 4.316647978431986 14.993853808748234 5.546014754583729 15.000024993750309 7.03745875724598 "></path>
    </defs>
    <g style="mix-blend-mode:normal">
      <use xmlns:xlink="http://www.w3.org/1999/xlink" xlink:href="#s-Path_5-ed5b6" fill="#7D7D7D" fill-opacity="1.0"></use>
    </g>
  </g>
  <g>
    <defs>
      <path id="s-Path_6-ed5b6" d="M15.346491125753804 12.278146370137412 C14.476491120985436 11.175707205705407 13.746491101911946 10.235391425070326 12.866491106680321 9.132952131794212 C12.406491098335675 8.549307834165592 11.81649115436404 7.965663536536972 11.116491106680328 7.7062660709242525 C11.006491107276375 7.663033162673051 10.896491107872421 7.63060847947146 10.786491093567307 7.608992021319482 C10.53649109356731 7.565759113068282 10.266491112640797 7.565759113068282 10.00649112217754 7.565759113068282 C9.746491131714283 7.565759113068282 9.47649115078777 7.565759113068282 9.216491100719871 7.619800250395471 C9.106491101315918 7.641416704521072 8.996491101911964 7.673841387722662 8.88649108760685 7.717074300000242 C8.186491099527782 7.976471749507448 7.606491116217083 8.560115998819526 7.1364910876068555 9.143760360870202 C6.266491082838487 10.246199525302206 5.536491063765004 11.186515305937288 4.656491068533378 12.288954599213403 C3.3464911257538414 13.704832314242399 1.7364909922394425 15.272025324915571 2.036491182974305 17.466095436782727 C2.3264911746296537 18.568534601214733 3.056491163900815 19.660165548649882 4.366491106680352 19.973604099246874 C5.096491125753835 20.135727515254825 7.426491049459881 19.498042100430904 9.90649106853336 19.498042100430904 L10.086491075685917 19.498042100430904 C12.566491094759396 19.498042100430904 14.896491018465444 20.12491926604694 15.626491037538926 19.973604099246874 C16.936490980318464 19.660165516438855 17.66649099939195 18.55772638421788 17.956490961244974 17.466095436782727 C18.26649096362916 15.261217107918718 16.656491008928697 13.694024097245546 15.34649106614916 12.278146124528329 Z "></path>
    </defs>
    <g style="mix-blend-mode:normal">
      <use xmlns:xlink="http://www.w3.org/1999/xlink" xlink:href="#s-Path_6-ed5b6" fill="#7D7D7D" fill-opacity="1.0"></use>
    </g>
  </g>
</svg>
